<!DOCTYPE svg PUBLIC "-//W3C//DTD SVG 1.1//EN" "http://www.w3.org/Graphics/SVG/1.1/DTD/svg11.dtd">
<!-- Uploaded to: SVG Repo, www.svgrepo.com, Transformed by: SVG Repo Mixer Tools -->
<svg fill="#2530cb" version="1.1" id="Capa_1" xmlns="http://www.w3.org/2000/svg" xmlns:xlink="http://www.w3.org/1999/xlink" width="800px" height="800px" viewBox="0 0 276.579 276.579" xml:space="preserve" stroke="#2530cb">
<g id="SVGRepo_bgCarrier" stroke-width="0"/>
<g id="SVGRepo_tracerCarrier" stroke-linecap="round" stroke-linejoin="round"/>
<g id="SVGRepo_iconCarrier"> <g> <g> <path d="M236.518,84.536h-59.13V52.283c0-14.84-12.031-26.877-26.876-26.877h-5.375c-14.843,0-26.878,12.037-26.878,26.877v32.252 H91.382v166.637h112.884c26.72,0,52.494-21.266,57.571-47.497l13.867-71.644C280.781,105.801,263.237,84.536,236.518,84.536z"/> <path d="M0,132.915v69.88c0,26.72,21.657,48.378,48.379,48.378H69.88V84.536H48.379C21.657,84.536,0,106.192,0,132.915z M53.754,229.671c-26.877,0-34.494-7.812-34.494-32.251h34.494V229.671z"/> </g> </g> </g>
</svg>